<svg width="32" height="32" xmlns="http://www.w3.org/2000/svg">

 <g>
  <title>background</title>
  <rect fill="none" id="canvas_background" height="402" width="582" y="-1" x="-1"/>
 </g>
 <g>
  <title>Layer 1</title>
  <path fill="#ffffff" id="svg_2" d="m15.864636,-0.067682c-8.836,0 -16,7.163 -16,16c0,8.836 7.164,16 16,16s16,-7.164 16,-16c0,-8.837 -7.164,-16 -16,-16zm-4.156,22.277l-3.264,0l0,-9.82l3.264,0l0,9.82zm-1.632,-11.161l-0.021,0c-1.096,0 -1.804,-0.755 -1.804,-1.697c0,-0.963 0.73,-1.696 1.846,-1.696c1.116,0 1.804,0.733 1.825,1.696c0,0.943 -0.709,1.697 -1.846,1.697zm13.401,11.161l0,0l-3.264,0l0,-5.254c0,-1.32 -0.472,-2.22 -1.654,-2.22c-0.901,0 -1.438,0.607 -1.674,1.194c-0.086,0.21 -0.108,0.503 -0.108,0.796l0,5.484l-3.263,0c0,0 0.043,-8.898 0,-9.82l3.264,0l0,1.391c0.433,-0.669 1.209,-1.622 2.942,-1.622c2.147,0 3.757,1.404 3.757,4.42l0,5.631z"/>
 </g>
</svg>